<svg width="358" height="51" viewBox="0 0 358 51" fill="none" xmlns="http://www.w3.org/2000/svg">
<rect width="358" height="50.152" rx="2" fill="black" fill-opacity="0.8"/>
<path d="M171.167 22.6628H169.582C169.488 22.2069 169.324 21.8063 169.09 21.4611C168.86 21.116 168.578 20.8262 168.246 20.5918C167.918 20.3532 167.554 20.1742 167.153 20.0549C166.752 19.9356 166.335 19.8759 165.9 19.8759C165.108 19.8759 164.389 20.0762 163.746 20.4768C163.107 20.8773 162.598 21.4675 162.218 22.2474C161.843 23.0272 161.656 23.9839 161.656 25.1174C161.656 26.2509 161.843 27.2076 162.218 27.9874C162.598 28.7672 163.107 29.3574 163.746 29.758C164.389 30.1586 165.108 30.3589 165.9 30.3589C166.335 30.3589 166.752 30.2992 167.153 30.1799C167.554 30.0606 167.918 29.8837 168.246 29.6493C168.578 29.4107 168.86 29.1188 169.09 28.7736C169.324 28.4242 169.488 28.0236 169.582 27.5719H171.167C171.048 28.241 170.831 28.8397 170.515 29.3681C170.2 29.8965 169.808 30.3461 169.339 30.7168C168.87 31.0833 168.344 31.3624 167.76 31.5542C167.181 31.7459 166.561 31.8418 165.9 31.8418C164.784 31.8418 163.791 31.5691 162.921 31.0236C162.052 30.4782 161.368 29.7026 160.87 28.6969C160.371 27.6913 160.122 26.4981 160.122 25.1174C160.122 23.7367 160.371 22.5435 160.87 21.5378C161.368 20.5322 162.052 19.7566 162.921 19.2111C163.791 18.6657 164.784 18.393 165.9 18.393C166.561 18.393 167.181 18.4888 167.76 18.6806C168.344 18.8724 168.87 19.1536 169.339 19.5243C169.808 19.8908 170.2 20.3383 170.515 20.8667C170.831 21.3908 171.048 21.9895 171.167 22.6628ZM173.524 31.6628V21.8447H174.982V23.3276H175.084C175.263 22.8418 175.587 22.4476 176.055 22.1451C176.524 21.8425 177.053 21.6913 177.641 21.6913C177.752 21.6913 177.89 21.6934 178.056 21.6976C178.222 21.7019 178.348 21.7083 178.433 21.7168V23.2509C178.382 23.2381 178.265 23.2189 178.082 23.1934C177.903 23.1636 177.713 23.1486 177.513 23.1486C177.036 23.1486 176.609 23.2488 176.234 23.4491C175.864 23.6451 175.57 23.9178 175.352 24.2672C175.139 24.6124 175.033 25.0066 175.033 25.4498V31.6628H173.524ZM180.222 31.6628V21.8447H181.73V31.6628H180.222ZM180.989 20.2083C180.695 20.2083 180.441 20.1082 180.228 19.9079C180.019 19.7076 179.915 19.4668 179.915 19.1856C179.915 18.9043 180.019 18.6636 180.228 18.4633C180.441 18.263 180.695 18.1628 180.989 18.1628C181.283 18.1628 181.534 18.263 181.743 18.4633C181.956 18.6636 182.062 18.9043 182.062 19.1856C182.062 19.4668 181.956 19.7076 181.743 19.9079C181.534 20.1082 181.283 20.2083 180.989 20.2083ZM187.382 31.893C186.76 31.893 186.195 31.7758 185.688 31.5414C185.181 31.3028 184.778 30.9597 184.48 30.5123C184.182 30.0606 184.033 29.5151 184.033 28.8759C184.033 28.3134 184.144 27.8574 184.365 27.508C184.587 27.1543 184.883 26.8773 185.254 26.677C185.624 26.4768 186.033 26.3276 186.481 26.2296C186.933 26.1273 187.386 26.0464 187.842 25.9867C188.439 25.91 188.923 25.8525 189.293 25.8141C189.668 25.7715 189.941 25.7012 190.112 25.6032C190.286 25.5052 190.374 25.3347 190.374 25.0918V25.0407C190.374 24.41 190.201 23.9199 189.856 23.5705C189.515 23.2211 188.997 23.0464 188.303 23.0464C187.582 23.0464 187.018 23.204 186.609 23.5194C186.2 23.8347 185.912 24.1714 185.746 24.5293L184.314 24.018C184.57 23.4214 184.911 22.9569 185.337 22.6245C185.767 22.2878 186.236 22.0535 186.743 21.9214C187.254 21.785 187.757 21.7168 188.252 21.7168C188.567 21.7168 188.929 21.7552 189.338 21.8319C189.752 21.9043 190.15 22.0556 190.533 22.2857C190.921 22.5158 191.243 22.8631 191.499 23.3276C191.754 23.7921 191.882 24.4143 191.882 25.1941V31.6628H190.374V30.3333H190.297C190.195 30.5464 190.024 30.7743 189.786 31.0172C189.547 31.2601 189.229 31.4668 188.833 31.6373C188.437 31.8077 187.953 31.893 187.382 31.893ZM187.612 30.5378C188.209 30.5378 188.712 30.4207 189.121 30.1863C189.534 29.9519 189.845 29.6493 190.054 29.2786C190.267 28.9079 190.374 28.518 190.374 28.1089V26.7282C190.31 26.8049 190.169 26.8752 189.952 26.9391C189.739 26.9988 189.492 27.052 189.21 27.0989C188.933 27.1415 188.663 27.1799 188.399 27.214C188.139 27.2438 187.928 27.2694 187.766 27.2907C187.374 27.3418 187.007 27.4249 186.666 27.54C186.33 27.6508 186.057 27.8191 185.848 28.0449C185.644 28.2665 185.541 28.5691 185.541 28.9526C185.541 29.4768 185.735 29.8731 186.123 30.1415C186.515 30.4057 187.011 30.5378 187.612 30.5378ZM194.636 31.6628V21.8447H196.093V23.3276H196.195C196.374 22.8418 196.698 22.4476 197.167 22.1451C197.636 21.8425 198.164 21.6913 198.752 21.6913C198.863 21.6913 199.001 21.6934 199.168 21.6976C199.334 21.7019 199.459 21.7083 199.545 21.7168V23.2509C199.494 23.2381 199.376 23.2189 199.193 23.1934C199.014 23.1636 198.824 23.1486 198.624 23.1486C198.147 23.1486 197.721 23.2488 197.346 23.4491C196.975 23.6451 196.681 23.9178 196.464 24.2672C196.251 24.6124 196.144 25.0066 196.144 25.4498V31.6628H194.636Z" fill="white"/>
</svg>
